<?xml version="1.0" encoding="UTF-8" standalone="no"?>
<svg
   xmlns:dc="http://purl.org/dc/elements/1.1/"
   xmlns:cc="http://creativecommons.org/ns#"
   xmlns:rdf="http://www.w3.org/1999/02/22-rdf-syntax-ns#"
   xmlns:svg="http://www.w3.org/2000/svg"
   xmlns="http://www.w3.org/2000/svg"
   viewBox="0 0 133.33333 87.998665"
   height="87.998665"
   width="133.33333"
   xml:space="preserve"
   id="svg2"
   version="1.1"><metadata
     id="metadata8"><rdf:RDF><cc:Work
         rdf:about=""><dc:format>image/svg+xml</dc:format><dc:type
           rdf:resource="http://purl.org/dc/dcmitype/StillImage" /></cc:Work></rdf:RDF></metadata><defs
     id="defs6"><clipPath
       id="clipPath18"
       clipPathUnits="userSpaceOnUse"><path
         id="path16"
         d="M 0,65.999 H 100 V 0 H 0 Z" /></clipPath></defs><g
     transform="matrix(1.3333333,0,0,-1.3333333,0,87.998667)"
     id="g10"><g
       id="g12"><g
         clip-path="url(#clipPath18)"
         id="g14"><path
           id="path20"
           style="fill:#000000;fill-opacity:1;fill-rule:nonzero;stroke:none"
           d="M 90.49,62.194 H 64.906 V 54.231 H 90.49 Z M 87.947,30.126 H 67.576 c 0,0 1.332,9.963 10.912,9.963 9.578,0 9.459,-9.963 9.459,-9.963 m -9.699,19.43 c -23.85,0 -23.83,-24.83 -23.83,-24.83 0,0 -1.635,-24.707 23.83,-24.707 0,0 21.219,-1.267 21.219,17.185 h -10.91 c 0,0 0.361,-6.949 -9.946,-6.949 0,0 -10.914,-0.762 -10.914,11.244 h 32.135 c 0,0 3.518,28.057 -21.584,28.057 M 31.36,12.854 H 14.223 v 17.272 h 18.048 c 0,0 6.54,0.09 6.54,-8.875 0,-7.559 -4.884,-8.338 -7.451,-8.397 M 14.223,54.513 h 18.048 c 0,0 4.387,0 4.387,-6.725 0,-6.725 -2.578,-7.699 -5.506,-7.699 H 14.223 Z M 40.359,36.491 c 0,0 9.461,0.735 9.461,12.299 0,11.566 -7.74,17.209 -17.549,17.209 H 0 V 1.366 h 32.271 c 0,0 19.702,-0.646 19.702,19.078 0,0 0.859,16.047 -11.614,16.047" /></g></g></g></svg>