<svg xmlns="http://www.w3.org/2000/svg" width="15.937" height="15" viewBox="0 0 15.937 15">
  <metadata><?xpacket begin="﻿" id="W5M0MpCehiHzreSzNTczkc9d"?>
<x:xmpmeta xmlns:x="adobe:ns:meta/" x:xmptk="Adobe XMP Core 5.6-c138 79.159824, 2016/09/14-01:09:01        ">
   <rdf:RDF xmlns:rdf="http://www.w3.org/1999/02/22-rdf-syntax-ns#">
      <rdf:Description rdf:about=""/>
   </rdf:RDF>
</x:xmpmeta>
                                                                                                    
                                                                                                    
                                                                                                    
                                                                                                    
                                                                                                    
                                                                                                    
                                                                                                    
                                                                                                    
                                                                                                    
                                                                                                    
                                                                                                    
                                                                                                    
                                                                                                    
                                                                                                    
                                                                                                    
                                                                                                    
                                                                                                    
                                                                                                    
                                                                                                    
                                                                                                    
                           
<?xpacket end="w"?></metadata>
<defs>
    <style>
      .cls-1 {
        fill: #008ed6;
        fill-rule: evenodd;
      }
    </style>
  </defs>
  <path id="Cup" class="cls-1" d="M743.014,1600.31a5.186,5.186,0,0,1-5-5.34v-3.19a0.5,0.5,0,0,1,.5-0.5h8.993a0.5,0.5,0,0,1,.5.5v3.19A5.185,5.185,0,0,1,743.014,1600.31Zm-4-8.03v2.69a4.01,4.01,0,1,0,7.993,0v-2.69h-7.993Zm3.992,12.48a0.5,0.5,0,0,1-.5-0.5v-4.14a0.5,0.5,0,0,1,1,0v4.14A0.5,0.5,0,0,1,743.009,1604.76Zm2.045,0h-4.042a0.5,0.5,0,0,1-.5-0.5,0.5,0.5,0,0,1,.5-0.5h4.042a0.5,0.5,0,0,1,.5.5A0.5,0.5,0,0,1,745.054,1604.76Zm1.494,1.52h-7.03a0.5,0.5,0,1,1,0-1h7.03A0.5,0.5,0,0,1,746.548,1606.28Zm1.076-9.5a0.5,0.5,0,0,1-.5-0.5,0.5,0.5,0,0,1,.5-0.5,2.367,2.367,0,0,0,1.921-.71,2.717,2.717,0,0,0,.465-1.79h-2.3a0.5,0.5,0,0,1-.5-0.5,0.5,0.5,0,0,1,.5-0.5h2.75a0.5,0.5,0,0,1,.49.4,4.016,4.016,0,0,1-.624,3.02A3.289,3.289,0,0,1,747.624,1596.78Zm-9.145,0a3.29,3.29,0,0,1-2.7-1.08,4.019,4.019,0,0,1-.623-3.02,0.5,0.5,0,0,1,.49-0.4h2.75a0.5,0.5,0,0,1,.5.5,0.5,0.5,0,0,1-.5.5h-2.3a2.711,2.711,0,0,0,.465,1.79,2.366,2.366,0,0,0,1.921.71,0.5,0.5,0,0,1,.5.5A0.5,0.5,0,0,1,738.479,1596.78Z" transform="translate(-735.094 -1591.28)"/>
</svg>
