<?xml version="1.0" encoding="UTF-8" standalone="no"?>
<svg
   xmlns:dc="http://purl.org/dc/elements/1.1/"
   xmlns:cc="http://creativecommons.org/ns#"
   xmlns:rdf="http://www.w3.org/1999/02/22-rdf-syntax-ns#"
   xmlns:svg="http://www.w3.org/2000/svg"
   xmlns="http://www.w3.org/2000/svg"
   viewBox="0 0 122.66667 122.66667"
   height="122.66667"
   width="122.66667"
   xml:space="preserve"
   id="svg2"
   version="1.1"><metadata
     id="metadata8"><rdf:RDF><cc:Work
         rdf:about=""><dc:format>image/svg+xml</dc:format><dc:type
           rdf:resource="http://purl.org/dc/dcmitype/StillImage" /></cc:Work></rdf:RDF></metadata><defs
     id="defs6"><clipPath
       id="clipPath18"
       clipPathUnits="userSpaceOnUse"><path
         id="path16"
         d="M 0,92 H 92 V 0 H 0 Z" /></clipPath></defs><g
     transform="matrix(1.3333333,0,0,-1.3333333,0,122.66667)"
     id="g10"><g
       id="g12"><g
         clip-path="url(#clipPath18)"
         id="g14"><g
           transform="translate(60.3047,41.4766)"
           id="g20"><path
             id="path22"
             style="fill:#000000;fill-opacity:1;fill-rule:nonzero;stroke:none"
             d="m 0,0 c 5.16,-14.177 7.25,-25.709 7.646,-28.059 8.821,5.956 15.088,15.398 16.834,26.351 C 23.699,-1.456 12.701,2.033 0,0 M -5.854,13.93 C -4.936,12.056 -4.059,10.152 -3.242,8.231 -2.951,7.554 -2.67,6.876 -2.395,6.202 11.174,7.908 24.531,5.013 24.968,4.918 24.875,14.241 21.545,22.787 16.033,29.478 15.953,29.36 9.651,20.261 -5.854,13.93 M -7.621,-1.905 c -23.057,-8.033 -30.668,-24.194 -30.822,-24.525 6.664,-5.204 15.029,-8.331 24.138,-8.331 5.442,0 10.623,1.108 15.336,3.109 -0.582,3.444 -2.867,15.475 -8.392,29.835 -0.086,-0.031 -0.172,-0.056 -0.26,-0.088 m -6.684,-39.572 c -25.404,0 -46,20.597 -46,46 0,25.405 20.596,46 46,46 25.407,0 46,-20.595 46,-46 0,-25.403 -20.593,-46 -46,-46 m 25.946,75.483 c -6.918,6.096 -15.998,9.802 -25.946,9.802 -3.191,0 -6.287,-0.391 -9.256,-1.108 0.598,-0.792 7.971,-10.589 14.686,-22.918 14.813,5.553 20.412,14.063 20.516,14.224 m -35.356,8.658 c -0.035,-0.008 -0.07,-0.017 -0.103,-0.024 0.06,0.014 0.097,0.02 0.097,0.02 z m -14.734,-69.109 0.006,0.015 c -0.291,0.23 -0.604,0.438 -0.889,0.676 0.521,-0.418 0.883,-0.691 0.883,-0.691 m 26.863,30.668 c 0.514,0.163 1.029,0.318 1.549,0.466 -0.986,2.235 -2.063,4.47 -3.188,6.676 -20.228,-6.053 -39.642,-5.615 -40.332,-5.597 -0.011,-0.414 -0.031,-0.826 -0.031,-1.245 0,-10.101 3.817,-19.307 10.078,-26.266 -0.011,0.013 -0.027,0.034 -0.027,0.034 0,0 10.754,19.075 31.951,25.932 m -4.893,13.196 c -6.792,12.073 -14.053,21.914 -14.586,22.636 -10.956,-5.177 -19.132,-15.269 -21.683,-27.432 1.031,-0.019 17.404,-0.216 36.269,4.796" /></g></g></g></g></svg>