<svg xmlns="http://www.w3.org/2000/svg" width="10.531" height="15.97" viewBox="0 0 10.531 15.97">
  <metadata><?xpacket begin="﻿" id="W5M0MpCehiHzreSzNTczkc9d"?>
<x:xmpmeta xmlns:x="adobe:ns:meta/" x:xmptk="Adobe XMP Core 5.6-c138 79.159824, 2016/09/14-01:09:01        ">
   <rdf:RDF xmlns:rdf="http://www.w3.org/1999/02/22-rdf-syntax-ns#">
      <rdf:Description rdf:about=""/>
   </rdf:RDF>
</x:xmpmeta>
                                                                                                    
                                                                                                    
                                                                                                    
                                                                                                    
                                                                                                    
                                                                                                    
                                                                                                    
                                                                                                    
                                                                                                    
                                                                                                    
                                                                                                    
                                                                                                    
                                                                                                    
                                                                                                    
                                                                                                    
                                                                                                    
                                                                                                    
                                                                                                    
                                                                                                    
                                                                                                    
                           
<?xpacket end="w"?></metadata>
<defs>
    <style>
      .cls-1 {
        fill: #008ed6;
        fill-rule: evenodd;
      }
    </style>
  </defs>
  <path id="Energy" class="cls-1" d="M744.56,1664.34h0m0,0-1.128,5.93,4.087,0.01-5.564,8.04,1.129-6.53-4.087-.01,5.563-7.44m0-1H744.48a0.928,0.928,0,0,0-.432.17,1,1,0,0,0-.209.18,0.709,0.709,0,0,1-.052.07l-5.6,7.42a1,1,0,0,0-.084,1.04,1.029,1.029,0,0,0,.889.55l2.887,0.02-0.908,5.34a0.994,0.994,0,0,0,.59,1.1,0.941,0.941,0,0,0,.4.09,0.919,0.919,0,0,0,.766-0.42l5.611-8.03a1,1,0,0,0,.084-1.04,0.991,0.991,0,0,0-.89-0.55H744.64l0.9-4.71a0.941,0.941,0,0,0,.028-0.23,1,1,0,0,0-.969-1h-0.036Z" transform="translate(-738 -1663.34)"/>
</svg>
