<svg xmlns="http://www.w3.org/2000/svg" width="32" height="22" viewBox="0 0 32 22">
  <metadata><?xpacket begin="﻿" id="W5M0MpCehiHzreSzNTczkc9d"?>
<x:xmpmeta xmlns:x="adobe:ns:meta/" x:xmptk="Adobe XMP Core 5.6-c138 79.159824, 2016/09/14-01:09:01        ">
   <rdf:RDF xmlns:rdf="http://www.w3.org/1999/02/22-rdf-syntax-ns#">
      <rdf:Description rdf:about=""/>
   </rdf:RDF>
</x:xmpmeta>
                                                                                                    
                                                                                                    
                                                                                                    
                                                                                                    
                                                                                                    
                                                                                                    
                                                                                                    
                                                                                                    
                                                                                                    
                                                                                                    
                                                                                                    
                                                                                                    
                                                                                                    
                                                                                                    
                                                                                                    
                                                                                                    
                                                                                                    
                                                                                                    
                                                                                                    
                                                                                                    
                           
<?xpacket end="w"?></metadata>
<defs>
    <style>
      .cls-1 {
        fill: #008ed6;
        fill-rule: evenodd;
      }
    </style>
  </defs>
  <path id="Envelope" class="cls-1" d="M1132.5,3496.01c0.55,0,.5-0.05.5,0.5v16c0,0.56.05,1.5-.5,1.5h-26a2.058,2.058,0,0,1-1.5-1.5v-16c0-.55.95-0.5,1.5-0.5H1132m0.5-2h-26c-1.66,0-3.5.85-3.5,2.5v16a3.919,3.919,0,0,0,3.5,3.5h26c1.66,0,2.5-1.84,2.5-3.5v-16a2.219,2.219,0,0,0-2.5-2.5h0Zm-13.5,15.1a0.948,0.948,0,0,1-.65-0.25l-15-12a1,1,0,1,1,1.3-1.51l14.35,11.44,14.34-11.44a1.02,1.02,0,0,1,1.42.1,1.007,1.007,0,0,1-.1,1.41l-15.01,12A0.948,0.948,0,0,1,1119,3509.11Z" transform="translate(-1103 -3494)"/>
</svg>
