<svg xmlns="http://www.w3.org/2000/svg" width="32.031" height="31.969" viewBox="0 0 32.031 31.969">
  <metadata><?xpacket begin="﻿" id="W5M0MpCehiHzreSzNTczkc9d"?>
<x:xmpmeta xmlns:x="adobe:ns:meta/" x:xmptk="Adobe XMP Core 5.6-c138 79.159824, 2016/09/14-01:09:01        ">
   <rdf:RDF xmlns:rdf="http://www.w3.org/1999/02/22-rdf-syntax-ns#">
      <rdf:Description rdf:about=""/>
   </rdf:RDF>
</x:xmpmeta>
                                                                                                    
                                                                                                    
                                                                                                    
                                                                                                    
                                                                                                    
                                                                                                    
                                                                                                    
                                                                                                    
                                                                                                    
                                                                                                    
                                                                                                    
                                                                                                    
                                                                                                    
                                                                                                    
                                                                                                    
                                                                                                    
                                                                                                    
                                                                                                    
                                                                                                    
                                                                                                    
                           
<?xpacket end="w"?></metadata>
<defs>
    <style>
      .cls-1 {
        fill: #008ed6;
        fill-rule: evenodd;
      }
    </style>
  </defs>
  <path id="Like" class="cls-1" d="M873.008,941.984c-9.089,0-9.159-.377-10.285-1.224-0.6-.45-1.723-0.761-5.838-1.028a1.074,1.074,0,0,1-.773-0.365,14.5,14.5,0,0,1-2.143-7.908c0-4.733,1.471-6.89,1.534-6.99a1,1,0,0,1,.848-0.47c3.378,0,8.062-4.313,11.211-11.841,0.544-1.3.657-2.158,2.657-2.158a3.878,3.878,0,0,1,3.042,1.859c1.291,2.135.636,6.72,0.029,9.171,2.062-.017,5.8-0.045,7.572-0.045,2.472,0,4.106,1.474,4.156,3.628a5.854,5.854,0,0,1-.283,2.088,3.706,3.706,0,0,1,1.276,2.415,4.292,4.292,0,0,1-1.42,2.989,4.154,4.154,0,0,1,.366,1.547,4.111,4.111,0,0,1-2,3.055,5.8,5.8,0,0,1-.026,1.833C882.4,941,878.8,941.984,873.008,941.984ZM857.416,937.7c3.584,0.3,5.5.7,6.51,1.459,0.783,0.589.662,0.822,9.082,0.822,2.568,0,7.59-.107,7.975-1.87a1.8,1.8,0,0,0-.593-1.4,1.015,1.015,0,0,1,.519-1.306c0.008,0,2-.72,2.05-1.835a1.565,1.565,0,0,0-.472-1.16,1.019,1.019,0,0,1,.257-1.38,2.59,2.59,0,0,0,1.267-1.857,2.2,2.2,0,0,0-1.177-1.466,1.016,1.016,0,0,1-.489-0.674,1.006,1.006,0,0,1,.183-0.808,3.35,3.35,0,0,0,.49-1.566c-0.037-1.623-1.782-1.674-2.156-1.674-2.522,0-9,.026-9,0.026a0.986,0.986,0,0,1-.839-0.443,1.055,1.055,0,0,1-.092-0.944c0.977-2.814,1.523-7.228.617-8.735a1.217,1.217,0,0,0-1.328-.889,1.149,1.149,0,0,0-.813.929c-3.343,8-8.334,12.619-12.422,13.037a12.919,12.919,0,0,0-1.015,5.493A13.3,13.3,0,0,0,857.416,937.7Z" transform="translate(-853.969 -910)"/>
</svg>
