<?xml version="1.0" encoding="UTF-8" standalone="no"?>
<svg
   xmlns:dc="http://purl.org/dc/elements/1.1/"
   xmlns:cc="http://creativecommons.org/ns#"
   xmlns:rdf="http://www.w3.org/1999/02/22-rdf-syntax-ns#"
   xmlns:svg="http://www.w3.org/2000/svg"
   xmlns="http://www.w3.org/2000/svg"
   viewBox="0 0 120 118.31773"
   height="118.31773"
   width="120"
   xml:space="preserve"
   id="svg2"
   version="1.1"><metadata
     id="metadata8"><rdf:RDF><cc:Work
         rdf:about=""><dc:format>image/svg+xml</dc:format><dc:type
           rdf:resource="http://purl.org/dc/dcmitype/StillImage" /></cc:Work></rdf:RDF></metadata><defs
     id="defs6"><clipPath
       id="clipPath18"
       clipPathUnits="userSpaceOnUse"><path
         id="path16"
         d="M 0,88.738 H 90 V 0 H 0 Z" /></clipPath></defs><g
     transform="matrix(1.3333333,0,0,-1.3333333,0,118.31773)"
     id="g10"><g
       id="g12"><g
         clip-path="url(#clipPath18)"
         id="g14"><path
           id="path20"
           style="fill:#000000;fill-opacity:1;fill-rule:nonzero;stroke:none"
           d="M 0.506,61.901 H 19.748 V 0 H 0.506 Z m 19.873,17.216 c 0,-5.315 -3.924,-9.62 -10.381,-9.62 -6.074,0 -9.998,4.305 -9.998,9.62 0,5.444 4.051,9.621 10.252,9.621 6.203,0 10.002,-4.177 10.127,-9.621" /><g
           transform="translate(31.2617,42.1543)"
           id="g22"><path
             id="path24"
             style="fill:#000000;fill-opacity:1;fill-rule:nonzero;stroke:none"
             d="m 0,0 c 0,7.721 -0.252,14.176 -0.504,19.747 h 16.707 l 0.889,-8.608 h 0.379 c 2.531,4.052 8.734,10.002 19.115,10.002 12.658,0 22.152,-8.483 22.152,-26.71 V -42.154 H 39.496 v 34.305 c 0,7.976 -2.785,13.417 -9.748,13.417 -5.316,0 -8.478,-3.67 -9.871,-7.214 -0.508,-1.265 -0.635,-3.039 -0.635,-4.811 v -35.697 l -19.242,0 z" /></g></g></g></g></svg>