<svg xmlns="http://www.w3.org/2000/svg" width="18" height="32" viewBox="0 0 18 32">
  <metadata><?xpacket begin="﻿" id="W5M0MpCehiHzreSzNTczkc9d"?>
<x:xmpmeta xmlns:x="adobe:ns:meta/" x:xmptk="Adobe XMP Core 5.6-c138 79.159824, 2016/09/14-01:09:01        ">
   <rdf:RDF xmlns:rdf="http://www.w3.org/1999/02/22-rdf-syntax-ns#">
      <rdf:Description rdf:about=""/>
   </rdf:RDF>
</x:xmpmeta>
                                                                                                    
                                                                                                    
                                                                                                    
                                                                                                    
                                                                                                    
                                                                                                    
                                                                                                    
                                                                                                    
                                                                                                    
                                                                                                    
                                                                                                    
                                                                                                    
                                                                                                    
                                                                                                    
                                                                                                    
                                                                                                    
                                                                                                    
                                                                                                    
                                                                                                    
                                                                                                    
                           
<?xpacket end="w"?></metadata>
<defs>
    <style>
      .cls-1 {
        fill: #008ed6;
        fill-rule: evenodd;
      }
    </style>
  </defs>
  <path id="Phone" class="cls-1" d="M1176,912a1,1,0,0,1,1,1v26a1,1,0,0,1-1,1h-12.01a1,1,0,0,1-1-1V913a1,1,0,0,1,1-1H1176m0-2h-12.01a3,3,0,0,0-3,3v26a3,3,0,0,0,3,3H1176a3,3,0,0,0,3-3V913a3,3,0,0,0-3-3h0Zm-8,27a2,2,0,1,0,2-1.994A2,2,0,0,0,1168,937Zm0-24h4a1,1,0,1,1,0,2h-4A1,1,0,1,1,1168,913Z" transform="translate(-1161 -910)"/>
</svg>
