<svg xmlns="http://www.w3.org/2000/svg" width="24" height="32" viewBox="0 0 24 32">
  <metadata><?xpacket begin="﻿" id="W5M0MpCehiHzreSzNTczkc9d"?>
<x:xmpmeta xmlns:x="adobe:ns:meta/" x:xmptk="Adobe XMP Core 5.6-c138 79.159824, 2016/09/14-01:09:01        ">
   <rdf:RDF xmlns:rdf="http://www.w3.org/1999/02/22-rdf-syntax-ns#">
      <rdf:Description rdf:about=""/>
   </rdf:RDF>
</x:xmpmeta>
                                                                                                    
                                                                                                    
                                                                                                    
                                                                                                    
                                                                                                    
                                                                                                    
                                                                                                    
                                                                                                    
                                                                                                    
                                                                                                    
                                                                                                    
                                                                                                    
                                                                                                    
                                                                                                    
                                                                                                    
                                                                                                    
                                                                                                    
                                                                                                    
                                                                                                    
                                                                                                    
                           
<?xpacket end="w"?></metadata>
<defs>
    <style>
      .cls-1 {
        fill: #008ed6;
        fill-rule: evenodd;
      }
    </style>
  </defs>
  <path id="Pointer" class="cls-1" d="M720.125,3490.99c6.829,0,9.885,5.12,9.885,10.2,0,4.48-3.19,10.42-9.483,17.66-0.036.03-.086,0.07-0.131,0.11-0.046-.04-0.1-0.08-0.133-0.11l-0.524-.6c-4.106-4.71-9.729-11.16-9.729-17.06a10.293,10.293,0,0,1,10.115-10.2m0-2a12.328,12.328,0,0,0-12.115,12.2c0,6.93,6.439,14.02,10.77,19a2.437,2.437,0,0,0,1.579.8h0.076a2.429,2.429,0,0,0,1.575-.8c4.065-4.67,10-12.38,10-19s-4.333-12.2-11.885-12.2h0ZM720,3497a4.02,4.02,0,0,1,.046,8.04A4.075,4.075,0,0,1,716,3501a4,4,0,0,1,4-4m0.046-1.96a6,6,0,1,0,6,6,6,6,0,0,0-6-6h0Z" transform="translate(-708 -3489)"/>
</svg>
