<svg xmlns="http://www.w3.org/2000/svg" width="32" height="32" viewBox="0 0 32 32">
  <metadata><?xpacket begin="﻿" id="W5M0MpCehiHzreSzNTczkc9d"?>
<x:xmpmeta xmlns:x="adobe:ns:meta/" x:xmptk="Adobe XMP Core 5.6-c138 79.159824, 2016/09/14-01:09:01        ">
   <rdf:RDF xmlns:rdf="http://www.w3.org/1999/02/22-rdf-syntax-ns#">
      <rdf:Description rdf:about=""/>
   </rdf:RDF>
</x:xmpmeta>
                                                                                                    
                                                                                                    
                                                                                                    
                                                                                                    
                                                                                                    
                                                                                                    
                                                                                                    
                                                                                                    
                                                                                                    
                                                                                                    
                                                                                                    
                                                                                                    
                                                                                                    
                                                                                                    
                                                                                                    
                                                                                                    
                                                                                                    
                                                                                                    
                                                                                                    
                                                                                                    
                           
<?xpacket end="w"?></metadata>
<defs>
    <style>
      .cls-1 {
        fill: #008ed6;
        fill-rule: evenodd;
      }
    </style>
  </defs>
  <path id="Settings" class="cls-1" d="M584.016,922.97l-2.567-.569a11.8,11.8,0,0,0-.763-1.842l1.389-2.313a2.3,2.3,0,0,0,0-2.828L580.66,914a2.346,2.346,0,0,0-2.894-.089l-2.251,1.434a12.046,12.046,0,0,0-1.83-.768l-0.576-2.6A2.347,2.347,0,0,0,571,910h-2a2.294,2.294,0,0,0-2,2l-0.642,2.566a11.939,11.939,0,0,0-1.947.819l-2.308-1.47a2.348,2.348,0,0,0-2.895.089l-1.414,1.414a2.294,2.294,0,0,0,0,2.828l1.461,2.435a11.936,11.936,0,0,0-.705,1.72l-2.566.569A2.347,2.347,0,0,0,554,925.08v2a2.3,2.3,0,0,0,2,2l2.6,0.649a11.7,11.7,0,0,0,.658,1.593l-1.463,2.437a2.3,2.3,0,0,0,0,2.828L559.209,938a2.346,2.346,0,0,0,2.894.088l2.313-1.473a11.907,11.907,0,0,0,1.959.823L567.016,940a2.292,2.292,0,0,0,2,2h2a2.346,2.346,0,0,0,2.109-1.984l0.577-2.605a11.751,11.751,0,0,0,1.808-.757l2.256,1.437A2.346,2.346,0,0,0,580.66,938l1.415-1.415a2.3,2.3,0,0,0,0-2.828l-1.39-2.316a11.912,11.912,0,0,0,.716-1.714l2.6-.649a2.3,2.3,0,0,0,2-2v-2A2.347,2.347,0,0,0,584.016,922.97ZM584,926.939a1.3,1.3,0,0,1-.448.191l-3.708.926-0.344,1.051a10.144,10.144,0,0,1-.6,1.429l-0.5.986,1.959,3.267a1.4,1.4,0,0,1,.2.484l-1.315,1.314a1.6,1.6,0,0,1-.341-0.14l-3.292-2.1-1.023.53a9.85,9.85,0,0,1-1.5.63l-1.09.353-0.824,3.723a0.765,0.765,0,0,1-.217.416h-1.8a1.288,1.288,0,0,1-.191-0.447l-0.921-3.682-1.065-.337a9.786,9.786,0,0,1-1.63-.685l-1.028-.543-3.292,2.1a0.754,0.754,0,0,1-.409.142l-1.312-1.276a1.329,1.329,0,0,1,.181-0.449l2.046-3.408-0.487-.98a9.857,9.857,0,0,1-.548-1.324l-0.343-1.052-3.672-.918a1.414,1.414,0,0,1-.485-0.2V925.08h0a2.358,2.358,0,0,1,.335-0.141l3.773-.836,0.346-1.1a10.008,10.008,0,0,1,.588-1.431l0.487-.98-2.024-3.373a1.4,1.4,0,0,1-.2-0.484l1.314-1.315a1.525,1.525,0,0,1,.34.14l3.354,2.138,1.027-.542a9.941,9.941,0,0,1,1.622-.682l1.063-.339,0.912-3.648a1.4,1.4,0,0,1,.2-0.485H571c-0.014.02,0.115,0.194,0.142,0.339l0.839,3.794,1.089,0.352a9.973,9.973,0,0,1,1.523.639l1.023,0.532,3.224-2.054a0.748,0.748,0,0,1,.409-0.143l1.312,1.276a1.312,1.312,0,0,1-.181.45l-1.98,3.3,0.5,0.987A9.59,9.59,0,0,1,579.54,923l0.346,1.1,3.7,0.821a0.7,0.7,0,0,1,.435.241Zm-13.988,5.07a6.01,6.01,0,1,1,6.024-6.01A6.024,6.024,0,0,1,570.013,932.009ZM570,922a4,4,0,1,0,4,4A4,4,0,0,0,570,922Z" transform="translate(-554 -910)"/>
</svg>
