<svg xmlns="http://www.w3.org/2000/svg" width="16" height="14.88" viewBox="0 0 16 14.88">
  <metadata><?xpacket begin="﻿" id="W5M0MpCehiHzreSzNTczkc9d"?>
<x:xmpmeta xmlns:x="adobe:ns:meta/" x:xmptk="Adobe XMP Core 5.6-c138 79.159824, 2016/09/14-01:09:01        ">
   <rdf:RDF xmlns:rdf="http://www.w3.org/1999/02/22-rdf-syntax-ns#">
      <rdf:Description rdf:about=""/>
   </rdf:RDF>
</x:xmpmeta>
                                                                                                    
                                                                                                    
                                                                                                    
                                                                                                    
                                                                                                    
                                                                                                    
                                                                                                    
                                                                                                    
                                                                                                    
                                                                                                    
                                                                                                    
                                                                                                    
                                                                                                    
                                                                                                    
                                                                                                    
                                                                                                    
                                                                                                    
                                                                                                    
                                                                                                    
                                                                                                    
                           
<?xpacket end="w"?></metadata>
<defs>
    <style>
      .cls-1 {
        fill: #008ed6;
        fill-rule: evenodd;
      }
    </style>
  </defs>
  <path id="Speedometer" class="cls-1" d="M746.955,1714.15a0.5,0.5,0,0,1-.262-0.92,6.99,6.99,0,1,0-7.372-.03,0.5,0.5,0,0,1,.158.69,0.51,0.51,0,0,1-.689.16,7.993,7.993,0,1,1,8.427.03A0.5,0.5,0,0,1,746.955,1714.15Zm3.412-6.37h-0.914a0.5,0.5,0,0,1,0-1h0.914A0.5,0.5,0,0,1,750.367,1707.78Zm-13.751-.01H735.7a0.505,0.505,0,0,1,0-1.01h0.914A0.505,0.505,0,0,1,736.616,1707.77Zm6.4-6.34a0.5,0.5,0,0,1-.5-0.5v-0.92a0.5,0.5,0,1,1,1,0v0.92A0.5,0.5,0,0,1,743.02,1701.43Zm-3.167.78a0.5,0.5,0,0,1-.434-0.25l-0.457-.79a0.5,0.5,0,1,1,.866-0.5l0.457,0.79a0.5,0.5,0,0,1-.183.68A0.455,0.455,0,0,1,739.853,1702.21Zm9.531,9.2a0.567,0.567,0,0,1-.25-0.07l-0.792-.46a0.5,0.5,0,1,1,.5-0.86l0.792,0.45a0.508,0.508,0,0,1,.184.69A0.5,0.5,0,0,1,749.384,1711.41Zm-11.874-6.86a0.461,0.461,0,0,1-.25-0.07l-0.792-.45a0.509,0.509,0,0,1-.183-0.69,0.5,0.5,0,0,1,.683-0.18l0.792,0.46a0.5,0.5,0,0,1,.184.68A0.5,0.5,0,0,1,737.51,1704.55Zm-0.791,6.86a0.5,0.5,0,0,1-.433-0.25,0.509,0.509,0,0,1,.183-0.69l0.791-.45a0.5,0.5,0,1,1,.5.86l-0.791.46A0.567,0.567,0,0,1,736.719,1711.41Zm11.874-6.86a0.5,0.5,0,0,1-.25-0.93l0.791-.46a0.5,0.5,0,0,1,.684.18,0.508,0.508,0,0,1-.184.69l-0.791.45A0.461,0.461,0,0,1,748.593,1704.55Zm-2.343-2.34a0.455,0.455,0,0,1-.249-0.07,0.5,0.5,0,0,1-.183-0.68l0.457-.79a0.5,0.5,0,1,1,.866.5l-0.457.79A0.5,0.5,0,0,1,746.25,1702.21Zm-4.232,5.07a1,1,0,1,0,1-1A1,1,0,0,0,742.018,1707.28Zm4.885-2.25a0.493,0.493,0,0,1-.183.68l-3.464,2a0.5,0.5,0,1,1-.5-0.86l3.464-2A0.5,0.5,0,0,1,746.9,1705.03Z" transform="translate(-735.031 -1699.28)"/>
</svg>
