<?xml version="1.0" encoding="UTF-8" standalone="no"?>
<svg
   xmlns:dc="http://purl.org/dc/elements/1.1/"
   xmlns:cc="http://creativecommons.org/ns#"
   xmlns:rdf="http://www.w3.org/1999/02/22-rdf-syntax-ns#"
   xmlns:svg="http://www.w3.org/2000/svg"
   xmlns="http://www.w3.org/2000/svg"
   viewBox="0 0 122.66667 99.690132"
   height="99.690132"
   width="122.66667"
   xml:space="preserve"
   id="svg2"
   version="1.1"><metadata
     id="metadata8"><rdf:RDF><cc:Work
         rdf:about=""><dc:format>image/svg+xml</dc:format><dc:type
           rdf:resource="http://purl.org/dc/dcmitype/StillImage" /></cc:Work></rdf:RDF></metadata><defs
     id="defs6"><clipPath
       id="clipPath18"
       clipPathUnits="userSpaceOnUse"><path
         id="path16"
         d="M 0,74.768 H 92 V 0 H 0 Z" /></clipPath></defs><g
     transform="matrix(1.3333333,0,0,-1.3333333,0,99.690133)"
     id="g10"><g
       id="g12"><g
         clip-path="url(#clipPath18)"
         id="g14"><g
           transform="translate(92,65.918)"
           id="g20"><path
             id="path22"
             style="fill:#000000;fill-opacity:1;fill-rule:nonzero;stroke:none"
             d="m 0,0 c -3.387,-1.502 -7.023,-2.516 -10.842,-2.973 3.899,2.336 6.891,6.036 8.301,10.443 -3.648,-2.162 -7.688,-3.734 -11.986,-4.58 -3.444,3.669 -8.35,5.96 -13.778,5.96 -10.424,0 -18.875,-8.451 -18.875,-18.874 0,-1.48 0.166,-2.92 0.489,-4.301 -15.686,0.786 -29.598,8.301 -38.905,19.721 -1.625,-2.789 -2.556,-6.031 -2.556,-9.49 0,-6.548 3.332,-12.324 8.396,-15.71 -3.092,0.098 -6.004,0.946 -8.549,2.36 -0.002,-0.078 -0.002,-0.157 -0.002,-0.237 0,-9.145 6.508,-16.774 15.141,-18.507 -1.582,-0.432 -3.25,-0.664 -4.973,-0.664 -1.215,0 -2.396,0.119 -3.55,0.339 2.402,-7.498 9.375,-12.956 17.632,-13.107 -6.461,-5.064 -14.597,-8.081 -23.441,-8.081 -1.523,0 -3.025,0.09 -4.502,0.266 8.352,-5.357 18.271,-8.483 28.934,-8.483 34.716,0 53.703,28.763 53.703,53.706 0,0.816 -0.018,1.631 -0.055,2.442 C -5.73,-7.11 -2.531,-3.786 0,0" /></g></g></g></g></svg>